<svg width="17" height="17" viewBox="0 0 17 17" fill="none" xmlns="http://www.w3.org/2000/svg">
<rect width="17" height="17" fill="#F2F2F2"/>
<rect width="1440" height="900" transform="translate(-790 -624)" fill="#0D192C"/>
<g clip-path="url(#clip0_0_59)">
<g filter="url(#filter0_d_0_59)">
<rect x="-227" y="-472" width="350" height="596" rx="15" fill="#15263F"/>
</g>
<rect opacity="0.01" x="16.305" y="16.6739" width="16" height="16" transform="rotate(180 16.305 16.6739)" fill="black"/>
<path fill-rule="evenodd" clip-rule="evenodd" d="M1.63834 8.67388C1.63834 4.99199 4.6231 2.00722 8.305 2.00722C10.0731 2.00722 11.7688 2.7096 13.019 3.95984C14.2693 5.21008 14.9717 6.90577 14.9717 8.67388C14.9717 12.3558 11.9869 15.3406 8.305 15.3406C4.6231 15.3406 1.63834 12.3558 1.63834 8.67388ZM8.305 9.34055H10.9717C11.3399 9.34055 11.6383 9.04207 11.6383 8.67388C11.6383 8.30569 11.3399 8.00722 10.9717 8.00722H8.97167V6.00722C8.97167 5.63903 8.67319 5.34055 8.305 5.34055C7.93681 5.34055 7.63834 5.63903 7.63834 6.00722V8.67388C7.63834 9.04207 7.93681 9.34055 8.305 9.34055Z" fill="#8BACD9"/>
</g>
<defs>
<filter id="filter0_d_0_59" x="-277" y="-497" width="450" height="696" filterUnits="userSpaceOnUse" color-interpolation-filters="sRGB">
<feFlood flood-opacity="0" result="BackgroundImageFix"/>
<feColorMatrix in="SourceAlpha" type="matrix" values="0 0 0 0 0 0 0 0 0 0 0 0 0 0 0 0 0 0 127 0" result="hardAlpha"/>
<feOffset dy="25"/>
<feGaussianBlur stdDeviation="25"/>
<feColorMatrix type="matrix" values="0 0 0 0 0 0 0 0 0 0 0 0 0 0 0 0 0 0 0.0952917 0"/>
<feBlend mode="normal" in2="BackgroundImageFix" result="effect1_dropShadow_0_59"/>
<feBlend mode="normal" in="SourceGraphic" in2="effect1_dropShadow_0_59" result="shape"/>
</filter>
<clipPath id="clip0_0_59">
<rect width="350" height="596" fill="white" transform="translate(-227 -472)"/>
</clipPath>
</defs>
</svg>
